# 3ds Max Wavefront OBJ Exporter v0.97b - (c)2007 guruware
# File Created: 16.05.2018 17:29:53

mtllib short turn risen.mtl

#
# object turn_tight
#

v  15703.4434 2355.1477 27012.1094
v  15703.4434 3139.9666 27012.1094
v  14826.4453 3139.9666 34266.8633
v  14826.4453 2355.1477 34266.8633
v  14527.8066 3139.9666 26978.4551
v  14527.8066 2355.1477 26978.4551
v  2158.4043 3139.9666 26624.3652
v  2158.4043 2355.1477 26624.3652
v  982.7695 3139.9666 26590.7109
v  982.7695 2355.1477 26590.7109
v  -23529.0117 2355.1477 51042.7930
v  -23529.0117 3139.9666 51042.7930
v  -18883.6523 3139.9666 50486.3750
v  -18883.6523 2355.1477 50486.3750
v  -23498.2305 3139.9666 52218.5117
v  -23498.2305 2355.1477 52218.5117
v  -23174.3008 3139.9666 64588.7383
v  -23174.3008 2355.1477 64588.7383
v  -23143.5117 3139.9666 65764.4531
v  -23143.5117 2355.1477 65764.4531
v  -8524.6680 5810.4834 62575.7422
v  -8986.2852 5810.4834 61494.0078
v  -16029.1719 5810.4834 63732.8984
v  -15781.4180 5810.4834 64882.6250
v  -2496.8438 3139.9666 57958.1914
v  -9427.0273 3139.9666 47706.3594
v  -13843.1563 3139.9666 50112.5156
v  -8986.2852 3139.9666 61494.0078
v  -13843.1563 5810.4834 50112.5156
v  -14304.7695 5810.4834 49030.7734
v  -18883.6523 5810.4834 50486.3750
v  -18635.9023 5810.4834 51636.1016
v  -18635.9023 1491.5477 51636.1016
v  -23498.2305 1491.5477 52218.5117
v  -23529.0117 1491.5477 51042.7930
v  -18883.6523 1491.5477 50486.3750
v  -16029.1719 2355.1477 63732.8945
v  -18635.9023 2355.1477 51636.1016
v  3202.9063 1491.5477 53254.1797
v  4034.6504 1491.5477 54085.7148
v  -1838.1680 1491.5477 58932.5703
v  -2496.8438 1491.5477 57958.1914
v  4034.6504 3139.9666 54085.7148
v  3202.9063 3139.9666 53254.1797
v  7905.4473 3139.9666 47553.2188
v  8879.9902 3139.9666 48211.6406
v  -23143.5117 5810.4834 65764.4531
v  -15781.4180 3139.9666 64882.6250
v  14527.8047 5810.4834 26978.4531
v  15703.4414 5810.4834 27012.1074
v  -2496.8438 5810.4834 57958.1914
v  -23174.3008 5810.4834 64588.7383
v  -18635.9023 3139.9666 51636.1016
v  -23498.2305 5810.4834 52218.5117
v  982.7695 5810.4834 26590.7109
v  2158.4023 5810.4834 26624.3652
v  -23529.0117 5810.4834 51042.7930
v  -3322.7188 2355.1477 39967.2617
v  -3322.7188 1491.5477 39967.2617
v  -6380.0430 1491.5477 43673.7031
v  -6380.0430 2355.1477 43673.7031
v  2158.4043 1491.5477 26624.3652
v  982.7695 1491.5477 26590.7109
v  -2496.8438 2355.1477 57958.1914
v  -1838.1680 2355.1477 58932.5703
v  4034.6504 2355.1477 54085.7148
v  3202.9063 2355.1477 53254.1797
v  15703.4434 1491.5477 27012.1094
v  14527.8066 1491.5477 26978.4551
v  -8524.6680 2355.1477 62575.7461
v  -8524.6680 1491.5477 62575.7461
v  -23174.3008 1491.5477 64588.7383
v  -23143.5117 1491.5477 65764.4531
v  -15781.4180 2355.1477 64882.6250
v  -14304.7695 3139.9666 49030.7734
v  -14304.7695 2355.1477 49030.7734
v  -16029.1719 3139.9666 63732.8945
v  -14304.7695 1491.5477 49030.7734
v  -13843.1563 1491.5477 50112.5156
v  -9427.0273 2355.1477 47706.3594
v  -8986.2852 2355.1477 61494.0078
v  -13843.1563 2355.1477 50112.5156
v  -16029.1719 1491.5477 63732.8945
v  -15781.4180 1491.5477 64882.6250
v  12521.4453 3139.9666 41524.2031
v  12521.4453 5810.4834 41524.2031
v  8879.9902 5810.4834 48211.6406
v  -10085.6953 3139.9666 46731.9844
v  -5548.3008 3139.9666 44505.2344
v  -5548.3008 5810.4834 44505.2344
v  -9427.0273 5810.4834 47706.3594
v  -9427.0273 1491.5477 47706.3594
v  -8524.6680 3139.9666 62575.7461
v  -1838.1680 5810.4834 58932.5703
v  -10085.6953 5810.4834 46731.9844
v  -8986.2852 1491.5477 61494.0078
v  -10085.6953 2355.1477 46731.9844
v  -1025.0234 1491.5477 35747.6016
v  56.8398 1491.5477 36208.9375
v  -2348.1719 1491.5477 40625.6836
v  429.3945 3139.9666 31168.3379
v  429.3945 5810.4834 31168.3379
v  -5548.3008 2355.1477 44505.2344
v  -1838.1680 3139.9666 58932.5703
v  3202.9063 5810.4834 53254.1797
v  -10085.6953 1491.5477 46731.9844
v  -3322.7188 3139.9666 39967.2617
v  -2348.1719 3139.9666 40625.6836
v  -6380.0430 3139.9666 43673.7031
v  1579.1914 2355.1477 31415.7969
v  1579.1914 1491.5477 31415.7969
v  11439.5859 5810.4834 41062.8672
v  7905.4473 5810.4834 47553.2188
v  56.8398 5810.4834 36208.9375
v  -1025.0234 5810.4834 35747.6016
v  -3322.7188 5810.4834 39967.2617
v  -2348.1719 5810.4834 40625.6836
v  7905.4473 1491.5477 47553.2188
v  8879.9902 1491.5477 48211.6406
v  12521.4453 2355.1477 41524.2031
v  11439.5859 2355.1477 41062.8672
v  7905.4473 2355.1477 47553.2188
v  8879.9902 2355.1477 48211.6406
v  11439.5859 1491.5477 41062.8672
v  4034.6504 5810.4834 54085.7148
v  56.8398 3139.9666 36208.9375
v  -5548.3008 1491.5477 44505.2344
v  -6380.0430 5810.4834 43673.7031
v  -2348.1719 2355.1477 40625.6836
v  11439.5859 3139.9666 41062.8672
v  14826.4453 1491.5477 34266.8633
v  12521.4453 1491.5477 41524.2031
v  429.3945 2355.1477 31168.3379
v  429.3945 1491.5477 31168.3379
v  -1025.0234 2355.1477 35747.6016
v  1579.1914 3139.9666 31415.7969
v  -1025.0234 3139.9666 35747.6016
v  56.8398 2355.1477 36208.9375
v  14826.4434 5810.4834 34266.8633
v  13676.6543 5810.4834 34019.4023
v  1579.1895 5810.4834 31415.7969
v  13676.6563 2355.1477 34019.4063
v  13676.6563 1491.5477 34019.4063
v  13676.6563 3139.9666 34019.4063
# 144 vertices

vn 0.9928 0.0000 0.1200
vn 0.9772 0.0000 0.2123
vn 0.0286 -0.0000 -0.9996
vn 0.0286 0.0000 -0.9996
vn -0.1189 0.0000 -0.9929
vn -0.1189 -0.0000 -0.9929
vn -0.2119 -0.0000 -0.9773
vn -0.2119 0.0000 -0.9773
vn -0.9997 0.0000 0.0262
vn -0.9997 -0.0000 0.0262
vn 0.0000 1.0000 0.0000
vn 0.0000 1.0000 -0.0000
vn -0.0000 1.0000 -0.0000
vn 0.0000 -1.0000 -0.0000
vn 0.2119 -0.0000 0.9773
vn 0.1189 0.0000 0.9929
vn -0.3925 -0.0000 -0.9198
vn -0.5600 -0.0000 -0.8285
vn 0.2119 0.0000 0.9773
vn -0.8286 0.0000 -0.5598
vn -0.7714 0.0000 -0.6363
vn 0.1189 -0.0000 0.9929
vn -0.6365 0.0000 -0.7713
vn -0.5600 0.0000 -0.8285
vn 0.3925 0.0000 0.9198
vn 0.5600 0.0000 0.8285
vn -0.3925 0.0000 -0.9198
vn 0.9199 0.0000 0.3923
vn 0.8286 0.0000 0.5598
vn 0.6365 0.0000 0.7713
vn 0.5600 -0.0000 0.8285
vn 0.3925 -0.0000 0.9198
vn -0.9928 0.0000 -0.1200
vn -0.9928 -0.0000 -0.1200
vn -0.9772 0.0000 -0.2123
vn -0.6365 -0.0000 -0.7713
vn -0.0000 1.0000 0.0000
vn -0.9199 0.0000 -0.3923
vn -0.9199 -0.0000 -0.3923
vn 0.8286 -0.0000 0.5598
vn 0.6365 -0.0000 0.7713
vn 0.7714 0.0000 0.6363
vn -0.9772 -0.0000 -0.2123
vn 0.7714 -0.0000 0.6363
# 44 vertex normals

vt 6.6816 0.4228 0.0000
vt 6.6816 0.5772 0.0000
vt 5.2535 0.5772 0.0000
vt 5.2535 0.4228 0.0000
vt 4.3406 0.5772 0.0000
vt 4.1092 0.5772 0.0000
vt 4.1092 0.4228 0.0000
vt 4.3406 0.4228 0.0000
vt 6.7756 0.5772 0.0000
vt 6.7756 0.4228 0.0000
vt 7.0070 0.5772 0.0000
vt 7.0070 0.4228 0.0000
vt 11.8321 0.4228 0.0000
vt 11.8321 0.5772 0.0000
vt 10.9177 0.5772 0.0000
vt 10.9177 0.4228 0.0000
vt -0.7197 0.5772 0.0000
vt -0.9512 0.5772 0.0000
vt -0.9512 0.4228 0.0000
vt -0.7197 0.4228 0.0000
vt 1.7153 0.5772 0.0000
vt 1.7153 0.4228 0.0000
vt 1.9468 0.5772 0.0000
vt 1.9468 0.4228 0.0000
vt -7.8785 -0.3191 0.0000
vt -7.9694 -0.1061 0.0000
vt -9.3558 -0.5469 0.0000
vt -9.3070 -0.7732 0.0000
vt -6.6920 0.5899 0.0000
vt -8.0562 2.6080 0.0000
vt -8.9255 2.1343 0.0000
vt -9.0163 2.3472 0.0000
vt -9.9177 2.0607 0.0000
vt -9.8689 1.8344 0.0000
vt -9.8689 -0.8344 0.0000
vt -10.8261 -0.7197 0.0000
vt -10.8321 -0.9512 0.0000
vt -9.9177 -1.0607 0.0000
vt -9.3558 1.5469 0.0000
vt -10.7623 1.7153 0.0000
vt -5.5700 -0.5159 0.0000
vt -5.4062 -0.3522 0.0000
vt -6.5623 0.6019 0.0000
vt -6.6920 0.4101 0.0000
vt -4.6443 -1.6381 0.0000
vt -4.4524 -1.5085 0.0000
vt -9.3070 0.7472 0.0000
vt -10.7563 0.7472 0.0000
vt -10.7563 0.5772 0.0000
vt -9.3070 0.5772 0.0000
vt 4.3406 0.7472 0.0000
vt 4.1092 0.7472 0.0000
vt 8.9694 0.5772 0.0000
vt 8.9694 0.7472 0.0000
vt 7.6920 0.7472 0.0000
vt 7.6920 0.5772 0.0000
vt 1.9468 0.7472 0.0000
vt 1.7153 0.7472 0.0000
vt -9.8689 0.7472 0.0000
vt -10.8261 0.7472 0.0000
vt -10.8261 0.5772 0.0000
vt -9.8689 0.5772 0.0000
vt 7.0070 0.7472 0.0000
vt 6.7756 0.7472 0.0000
vt 11.8321 0.7472 0.0000
vt 10.9177 0.7472 0.0000
vt -0.7197 0.7472 0.0000
vt -0.9512 0.7472 0.0000
vt -10.8321 1.9512 0.0000
vt -10.8261 1.7197 0.0000
vt -3.1314 0.4228 0.0000
vt -3.1314 0.2528 0.0000
vt -2.4018 0.2528 0.0000
vt -2.4018 0.4228 0.0000
vt 6.7756 0.2528 0.0000
vt 7.0070 0.2528 0.0000
vt -10.8261 0.4228 0.0000
vt -10.8261 0.2528 0.0000
vt -9.8689 0.2528 0.0000
vt -9.8689 0.4228 0.0000
vt -0.9512 0.2528 0.0000
vt -0.7197 0.2528 0.0000
vt -6.5623 0.3981 0.0000
vt -5.4062 1.3522 0.0000
vt -5.5700 1.5159 0.0000
vt 6.5700 0.4228 0.0000
vt 6.5700 0.2528 0.0000
vt 7.6920 0.2528 0.0000
vt 7.6920 0.4228 0.0000
vt 4.1092 0.2528 0.0000
vt 4.3406 0.2528 0.0000
vt -7.8785 0.4228 0.0000
vt -7.8785 0.2528 0.0000
vt -6.5623 0.2528 0.0000
vt -6.5623 0.4228 0.0000
vt 1.7153 0.2528 0.0000
vt 1.9468 0.2528 0.0000
vt -10.7563 0.4228 0.0000
vt -9.3070 0.4228 0.0000
vt 10.0163 0.5772 0.0000
vt 10.0163 0.4228 0.0000
vt -10.7623 -0.7153 0.0000
vt -10.7563 -0.9468 0.0000
vt -9.0163 -1.3472 0.0000
vt -8.9255 -1.1343 0.0000
vt -8.0562 -1.6080 0.0000
vt -7.9694 1.1061 0.0000
vt -10.7563 1.9468 0.0000
vt -9.3070 1.7732 0.0000
vt 3.8249 0.5772 0.0000
vt 3.8249 0.7472 0.0000
vt 2.5085 0.7472 0.0000
vt 2.5085 0.5772 0.0000
vt 11.7623 0.5772 0.0000
vt 11.7623 0.7472 0.0000
vt 10.3558 0.7472 0.0000
vt 10.3558 0.5772 0.0000
vt -8.1858 -1.7998 0.0000
vt -7.2926 0.5772 0.0000
vt -7.2926 0.7472 0.0000
vt -8.0562 0.7472 0.0000
vt -8.0562 0.5772 0.0000
vt 10.0163 0.7472 0.0000
vt 11.8321 0.2528 0.0000
vt 10.9177 0.2528 0.0000
vt -8.0562 0.2528 0.0000
vt -8.0562 0.4228 0.0000
vt -8.9255 0.4228 0.0000
vt -8.9255 0.2528 0.0000
vt 11.7623 0.2528 0.0000
vt 11.7623 0.4228 0.0000
vt 10.3558 0.4228 0.0000
vt 10.3558 0.2528 0.0000
vt -10.7563 0.2528 0.0000
vt -9.3070 0.2528 0.0000
vt -7.8785 0.5772 0.0000
vt -8.1858 2.7998 0.0000
vt -7.8785 1.3191 0.0000
vt 10.0163 0.2528 0.0000
vt 8.9694 0.4228 0.0000
vt 8.9694 0.2528 0.0000
vt 9.1858 0.5772 0.0000
vt 9.1858 0.4228 0.0000
vt -6.4022 -3.9620 0.0000
vt -6.1893 -3.8712 0.0000
vt -6.6627 -3.0018 0.0000
vt -6.8545 -3.1314 0.0000
vt -7.8785 0.7472 0.0000
vt -8.9255 0.5772 0.0000
vt -8.9255 0.7472 0.0000
vt -5.7646 0.7472 0.0000
vt -5.7646 0.5772 0.0000
vt -4.8635 0.5772 0.0000
vt -4.8635 0.7472 0.0000
vt -7.2926 3.2381 0.0000
vt -7.4564 3.4018 0.0000
vt -6.5623 0.5772 0.0000
vt 6.5700 0.7472 0.0000
vt 6.5700 0.5772 0.0000
vt 9.1858 0.2528 0.0000
vt -5.4062 0.2528 0.0000
vt -5.4062 0.4228 0.0000
vt -7.2926 -2.2381 0.0000
vt -6.5623 0.7472 0.0000
vt -7.4564 -2.4018 0.0000
vt 6.7580 0.2528 0.0000
vt 6.7580 0.4228 0.0000
vt 5.8148 0.4228 0.0000
vt 5.8148 0.2528 0.0000
vt -3.7356 3.8249 0.0000
vt -3.9486 3.9157 0.0000
vt -4.6443 2.6381 0.0000
vt -4.4524 2.5085 0.0000
vt -6.1893 4.8712 0.0000
vt -6.4022 4.9620 0.0000
vt -6.8545 4.1314 0.0000
vt -6.6627 4.0018 0.0000
vt -3.1314 0.5772 0.0000
vt -2.4018 0.5772 0.0000
vt 9.1858 0.7472 0.0000
vt -5.4062 0.5772 0.0000
vt 8.4564 0.4228 0.0000
vt 8.4564 0.2528 0.0000
vt -2.9157 0.4228 0.0000
vt -2.9157 0.2528 0.0000
vt -1.6381 0.2528 0.0000
vt -1.6381 0.4228 0.0000
vt -5.4062 0.7472 0.0000
vt 4.8712 0.5772 0.0000
vt 4.8712 0.7472 0.0000
vt 4.0018 0.7472 0.0000
vt 4.0018 0.5772 0.0000
vt 8.4564 0.7472 0.0000
vt 8.4564 0.5772 0.0000
vt -2.9157 0.7472 0.0000
vt -2.9157 0.5772 0.0000
vt -1.6381 0.5772 0.0000
vt -1.6381 0.7472 0.0000
vt 5.2535 0.2528 0.0000
vt 3.8249 0.4228 0.0000
vt 3.8249 0.2528 0.0000
vt -7.2926 0.2528 0.0000
vt -7.2926 0.4228 0.0000
vt 1.3522 0.5772 0.0000
vt 1.3522 0.4228 0.0000
vt 2.5085 0.4228 0.0000
vt -3.9486 -2.9157 0.0000
vt -3.7356 -2.8249 0.0000
vt -4.8635 0.4228 0.0000
vt -4.8635 0.2528 0.0000
vt -3.9620 0.2528 0.0000
vt -3.9620 0.4228 0.0000
vt 1.3522 0.7472 0.0000
vt -2.4018 0.7472 0.0000
vt -3.1314 0.7472 0.0000
vt -6.1159 -4.8635 0.0000
vt -5.8896 -4.8148 0.0000
vt 3.2381 0.4228 0.0000
vt 3.2381 0.2528 0.0000
vt 4.0018 0.2528 0.0000
vt 4.0018 0.4228 0.0000
vt -3.9620 0.5772 0.0000
vt -0.5159 0.2528 0.0000
vt -0.5159 0.4228 0.0000
vt 3.2381 0.7472 0.0000
vt 3.2381 0.5772 0.0000
vt -5.7756 6.7580 0.0000
vt -6.0070 6.7646 0.0000
vt -6.1159 5.8635 0.0000
vt -5.8896 5.8148 0.0000
vt -0.5159 0.5772 0.0000
vt -0.5159 0.7472 0.0000
vt 1.3522 0.2528 0.0000
vt 2.5085 0.2528 0.0000
vt 6.6816 0.7472 0.0000
vt 5.2535 0.7472 0.0000
vt -6.0070 -5.7646 0.0000
vt -5.7756 -5.7580 0.0000
vt -3.9620 0.7472 0.0000
vt 4.8712 0.2528 0.0000
vt 4.8712 0.4228 0.0000
vt -3.2819 5.2535 0.0000
vt -3.5082 5.3022 0.0000
vt -5.6883 0.4228 0.0000
vt -5.6883 0.2528 0.0000
vt -4.3022 0.2528 0.0000
vt -4.3022 0.4228 0.0000
vt 5.8148 0.5772 0.0000
vt 5.8148 0.7472 0.0000
vt -5.6883 0.7472 0.0000
vt -5.6883 0.5772 0.0000
vt -4.3022 0.5772 0.0000
vt -4.3022 0.7472 0.0000
vt -3.5082 -4.3022 0.0000
vt -3.2819 -4.2535 0.0000
vt -5.7646 0.4228 0.0000
vt -3.3406 -5.6883 0.0000
vt -3.1092 -5.6816 0.0000
vt 6.6816 0.2528 0.0000
vt -5.7646 0.2528 0.0000
vt -3.1092 6.6816 0.0000
vt -3.3406 6.6883 0.0000
vt 6.7580 0.5772 0.0000
vt 6.7580 0.7472 0.0000
# 264 texture coords

o turn_tight
g turn_tight
usemtl Mat_1
s 1
f 1/1/1 2/2/1 3/3/2 
f 4/4/2 1/1/1 3/3/2 
f 5/5/3 2/6/3 1/7/4 
f 6/8/4 5/5/3 1/7/4 
f 7/9/4 5/5/3 6/8/4 
f 8/10/4 7/9/4 6/8/4 
f 9/11/4 7/9/4 8/10/4 
f 10/12/4 9/11/4 8/10/4 
f 11/13/5 12/14/6 13/15/7 
f 14/16/8 11/13/5 13/15/7 
f 15/17/9 12/18/9 11/19/10 
f 16/20/9 15/17/9 11/19/10 
f 17/21/9 15/17/9 16/20/9 
f 18/22/9 17/21/9 16/20/9 
f 19/23/9 17/21/9 18/22/9 
f 20/24/9 19/23/9 18/22/9 
f 21/25/11 22/26/11 23/27/11 
f 24/28/11 21/25/11 23/27/11 
f 25/29/12 26/30/12 27/31/12 
f 28/26/12 25/29/12 27/31/12 
f 29/31/13 30/32/11 31/33/13 
f 32/34/13 29/31/13 31/33/13 
f 33/35/14 34/36/14 35/37/14 
f 36/38/14 33/35/14 35/37/14 
f 37/39/14 18/40/14 16/36/14 
f 38/35/14 37/39/14 16/36/14 
f 39/41/14 40/42/14 41/43/14 
f 42/44/14 39/41/14 41/43/14 
f 43/42/14 44/41/14 45/45/14 
f 46/46/14 43/42/14 45/45/14 
f 24/47/15 47/48/16 19/49/16 
f 48/50/15 24/47/15 19/49/16 
f 49/51/3 50/52/3 2/6/3 
f 5/5/3 49/51/3 2/6/3 
f 28/53/17 22/54/17 51/55/18 
f 25/56/18 28/53/17 51/55/18 
f 47/57/9 52/58/9 17/21/9 
f 19/23/9 47/57/9 17/21/9 
f 15/36/14 12/37/14 13/38/14 
f 53/35/14 15/36/14 13/38/14 
f 32/59/19 54/60/16 15/61/16 
f 53/62/19 32/59/19 15/61/16 
f 55/63/4 56/64/4 7/9/4 
f 9/11/4 55/63/4 7/9/4 
f 12/14/6 57/65/6 31/66/7 
f 13/15/7 12/14/6 31/66/7 
f 54/67/9 57/68/9 12/18/9 
f 15/17/9 54/67/9 12/18/9 
f 11/69/12 16/70/12 38/34/12 
f 14/33/12 11/69/12 38/34/12 
f 58/71/20 59/72/20 60/73/21 
f 61/74/21 58/71/20 60/73/21 
f 62/75/4 63/76/4 10/12/4 
f 8/10/4 62/75/4 10/12/4 
f 16/77/22 34/78/16 33/79/15 
f 38/80/19 16/77/22 33/79/15 
f 35/81/9 34/82/9 16/20/9 
f 11/19/10 35/81/9 16/20/9 
f 64/29/12 65/83/12 66/84/12 
f 67/85/12 64/29/12 66/84/12 
f 67/86/23 39/87/23 42/88/24 
f 64/89/24 67/86/23 42/88/24 
f 68/90/4 69/91/4 6/8/4 
f 1/7/4 68/90/4 6/8/4 
f 70/92/25 71/93/25 41/94/26 
f 65/95/26 70/92/25 41/94/26 
f 72/96/9 73/97/9 20/24/9 
f 18/22/9 72/96/9 20/24/9 
f 19/49/16 20/98/16 74/99/19 
f 48/50/15 19/49/16 74/99/19 
f 75/100/27 76/101/27 14/16/8 
f 13/15/7 75/100/27 14/16/8 
f 52/102/12 47/103/12 24/28/11 
f 23/27/11 52/102/12 24/28/11 
f 15/70/12 17/102/12 77/27/12 
f 53/34/12 15/70/12 77/27/12 
f 57/69/13 54/70/13 32/34/13 
f 31/33/13 57/69/13 32/34/13 
f 78/104/14 79/105/14 33/35/14 
f 36/38/14 78/104/14 33/35/14 
f 80/106/14 64/44/14 81/107/14 
f 82/105/14 80/106/14 81/107/14 
f 73/108/14 72/40/14 83/39/14 
f 84/109/14 73/108/14 83/39/14 
f 19/108/14 17/40/14 77/39/14 
f 48/109/14 19/108/14 77/39/14 
f 85/110/28 86/111/28 87/112/29 
f 46/113/29 85/110/28 87/112/29 
f 17/114/5 52/115/5 23/116/8 
f 77/117/8 17/114/5 23/116/8 
f 88/118/14 26/106/14 27/105/14 
f 75/104/14 88/118/14 27/105/14 
f 89/119/30 90/120/30 91/121/26 
f 26/122/26 89/119/30 91/121/26 
f 30/123/17 75/100/27 13/15/7 
f 31/66/7 30/123/17 13/15/7 
f 82/31/12 76/32/12 14/33/12 
f 38/34/12 82/31/12 14/33/12 
f 35/124/5 11/13/5 14/16/8 
f 36/125/8 35/124/5 14/16/8 
f 92/126/26 80/127/31 82/128/25 
f 79/129/25 92/126/26 82/128/25 
f 18/102/12 20/103/12 74/28/12 
f 37/27/12 18/102/12 74/28/12 
f 72/130/5 18/131/5 37/132/8 
f 83/133/7 72/130/5 37/132/8 
f 20/98/16 73/134/16 84/135/19 
f 74/99/19 20/98/16 84/135/19 
f 48/50/15 74/99/19 70/92/25 
f 93/136/25 48/50/15 70/92/25 
f 94/83/11 51/29/11 22/26/11 
f 21/25/11 94/83/11 22/26/11 
f 53/34/12 77/27/12 28/26/12 
f 27/31/12 53/34/12 28/26/12 
f 91/30/11 95/137/11 30/32/11 
f 29/31/13 91/30/11 30/32/11 
f 84/109/14 83/39/14 96/107/14 
f 71/138/14 84/109/14 96/107/14 
f 48/109/14 77/39/14 28/107/14 
f 93/138/14 48/109/14 28/107/14 
f 77/117/8 23/116/8 22/54/17 
f 28/53/17 77/117/8 22/54/17 
f 36/125/8 14/16/8 76/101/27 
f 78/139/27 36/125/8 76/101/27 
f 37/27/12 74/28/12 70/25/12 
f 81/26/12 37/27/12 70/25/12 
f 83/133/7 37/132/8 81/140/17 
f 96/141/27 83/133/7 81/140/17 
f 74/99/19 84/135/19 71/93/25 
f 70/92/25 74/99/19 71/93/25 
f 88/142/24 97/143/18 76/101/27 
f 75/100/27 88/142/24 76/101/27 
f 98/144/14 99/145/14 100/146/14 
f 59/147/14 98/144/14 100/146/14 
f 37/39/14 38/35/14 82/105/14 
f 81/107/14 37/39/14 82/105/14 
f 24/47/15 48/50/15 93/136/25 
f 21/148/25 24/47/15 93/136/25 
f 53/35/14 13/38/14 75/104/14 
f 27/105/14 53/35/14 75/104/14 
f 32/59/19 53/62/19 27/149/32 
f 29/150/25 32/59/19 27/149/32 
f 55/151/33 9/152/34 101/153/35 
f 102/154/35 55/151/33 101/153/35 
f 103/155/12 61/156/12 97/137/12 
f 80/30/12 103/155/12 97/137/12 
f 38/80/19 33/79/15 79/129/25 
f 82/128/25 38/80/19 79/129/25 
f 93/136/25 70/92/25 65/95/26 
f 104/157/26 93/136/25 65/95/26 
f 44/85/12 89/155/12 26/30/12 
f 25/29/12 44/85/12 26/30/12 
f 71/138/14 96/107/14 42/44/14 
f 41/43/14 71/138/14 42/44/14 
f 93/138/14 28/107/14 25/44/14 
f 104/43/14 93/138/14 25/44/14 
f 105/158/36 44/159/23 25/56/18 
f 51/55/18 105/158/36 25/56/18 
f 78/139/27 76/101/27 97/143/18 
f 106/160/24 78/139/27 97/143/18 
f 81/26/12 70/25/12 65/83/12 
f 64/29/12 81/26/12 65/83/12 
f 96/141/27 81/140/17 64/89/24 
f 42/88/24 96/141/27 64/89/24 
f 40/161/30 66/162/30 65/95/26 
f 41/94/26 40/161/30 65/95/26 
f 103/163/14 67/41/14 64/44/14 
f 80/106/14 103/163/14 64/44/14 
f 21/148/25 93/136/25 104/157/26 
f 94/164/26 21/148/25 104/157/26 
f 107/147/14 108/146/14 89/163/14 
f 109/165/14 107/147/14 89/163/14 
f 29/150/25 27/149/32 26/122/26 
f 91/121/26 29/150/25 26/122/26 
f 62/166/1 8/167/1 110/168/2 
f 111/169/2 62/166/1 110/168/2 
f 86/170/37 112/171/37 113/172/37 
f 87/173/37 86/170/37 113/172/37 
f 114/174/13 115/175/37 116/176/13 
f 117/177/13 114/174/13 116/176/13 
f 107/178/20 58/71/20 61/74/21 
f 109/179/21 107/178/20 61/74/21 
f 79/105/14 78/104/14 106/118/14 
f 92/106/14 79/105/14 106/118/14 
f 75/100/27 30/123/17 95/180/24 
f 88/142/24 75/100/27 95/180/24 
f 76/32/12 82/31/12 80/30/12 
f 97/137/12 76/32/12 80/30/12 
f 104/157/26 65/95/26 66/162/30 
f 43/181/30 104/157/26 66/162/30 
f 118/45/14 119/46/14 40/42/14 
f 39/41/14 118/45/14 40/42/14 
f 104/43/14 25/44/14 44/41/14 
f 43/42/14 104/43/14 44/41/14 
f 106/160/24 97/143/18 61/182/23 
f 60/183/23 106/160/24 61/182/23 
f 120/170/12 121/171/12 122/172/12 
f 123/173/12 120/170/12 122/172/12 
f 121/184/38 124/185/39 118/186/20 
f 122/187/20 121/184/38 118/186/20 
f 94/164/26 104/157/26 43/181/30 
f 125/188/30 94/164/26 43/181/30 
f 126/189/28 114/190/28 117/191/29 
f 108/192/40 126/189/28 117/191/29 
f 92/106/14 106/118/14 60/165/14 
f 127/163/14 92/106/14 60/165/14 
f 88/142/24 95/180/24 128/193/23 
f 109/194/36 88/142/24 128/193/23 
f 129/177/12 58/176/12 61/156/12 
f 103/155/12 129/177/12 61/156/12 
f 45/172/12 108/177/12 89/155/12 
f 44/85/12 45/172/12 89/155/12 
f 112/195/38 130/196/39 45/197/20 
f 113/198/20 112/195/38 45/197/20 
f 131/199/2 4/4/2 120/200/28 
f 132/201/28 131/199/2 120/200/28 
f 129/146/14 122/45/14 67/41/14 
f 103/163/14 129/146/14 67/41/14 
f 26/106/14 88/118/14 109/165/14 
f 89/163/14 26/106/14 109/165/14 
f 80/127/31 92/126/26 127/202/41 
f 103/203/30 80/127/31 127/202/41 
f 51/29/11 94/83/11 125/84/12 
f 105/85/12 51/29/11 125/84/12 
f 95/137/11 91/30/11 90/155/11 
f 128/156/13 95/137/11 90/155/11 
f 97/143/18 88/142/24 109/194/36 
f 61/182/23 97/143/18 109/194/36 
f 43/204/42 66/205/42 123/206/29 
f 46/113/29 43/204/42 123/206/29 
f 130/207/14 85/208/14 46/46/14 
f 45/45/14 130/207/14 46/46/14 
f 133/209/43 134/210/35 98/211/38 
f 135/212/38 133/209/43 98/211/38 
f 125/213/42 43/204/42 46/113/29 
f 87/112/29 125/213/42 46/113/29 
f 127/163/14 60/165/14 59/147/14 
f 100/146/14 127/163/14 59/147/14 
f 109/179/21 128/214/21 116/215/20 
f 107/178/20 109/179/21 116/215/20 
f 101/216/14 136/217/14 126/145/14 
f 137/144/14 101/216/14 126/145/14 
f 103/218/42 127/219/42 100/220/29 
f 129/221/29 103/218/42 100/220/29 
f 105/85/12 125/84/12 87/173/37 
f 113/172/37 105/85/12 87/173/37 
f 128/156/13 90/155/11 117/177/13 
f 116/176/13 128/156/13 117/177/13 
f 137/222/38 135/212/38 58/71/20 
f 107/178/20 137/222/38 58/71/20 
f 124/207/14 132/208/14 119/46/14 
f 118/45/14 124/207/14 119/46/14 
f 67/85/12 66/84/12 123/173/12 
f 122/172/12 67/85/12 123/173/12 
f 39/223/21 67/224/21 122/187/20 
f 118/186/20 39/223/21 122/187/20 
f 90/225/44 89/226/42 108/192/40 
f 117/191/29 90/225/44 108/192/40 
f 8/227/12 10/228/12 133/229/12 
f 110/230/12 8/227/12 133/229/12 
f 130/171/12 126/174/12 108/177/12 
f 45/172/12 130/171/12 108/177/12 
f 44/231/21 105/232/21 113/198/20 
f 45/197/20 44/231/21 113/198/20 
f 66/205/42 40/233/42 119/234/29 
f 123/206/29 66/205/42 119/234/29 
f 138/145/14 121/207/14 122/45/14 
f 129/146/14 138/145/14 122/45/14 
f 46/113/29 123/206/29 120/200/28 
f 85/110/28 46/113/29 120/200/28 
f 2/2/1 50/235/1 139/236/2 
f 3/3/2 2/2/1 139/236/2 
f 63/237/14 62/238/14 111/217/14 
f 134/216/14 63/237/14 111/217/14 
f 107/178/20 116/215/20 115/239/38 
f 137/222/38 107/178/20 115/239/38 
f 129/221/29 100/220/29 99/240/28 
f 138/241/28 129/221/29 99/240/28 
f 139/242/11 140/243/11 112/171/37 
f 86/170/37 139/242/11 112/171/37 
f 56/227/37 55/228/37 102/229/11 
f 141/230/11 56/227/37 102/229/11 
f 4/242/12 142/243/12 121/171/12 
f 120/170/12 4/242/12 121/171/12 
f 6/244/34 69/245/33 143/246/43 
f 142/247/43 6/244/34 143/246/43 
f 136/248/2 141/249/2 114/190/28 
f 126/189/28 136/248/2 114/190/28 
f 49/250/34 5/251/34 144/252/43 
f 140/253/43 49/250/34 144/252/43 
f 123/206/29 119/234/29 132/201/28 
f 120/200/28 123/206/29 132/201/28 
f 144/254/14 3/255/14 85/208/14 
f 130/207/14 144/254/14 85/208/14 
f 59/72/20 58/71/20 135/212/38 
f 98/211/38 59/72/20 135/212/38 
f 108/146/14 107/147/14 137/144/14 
f 126/145/14 108/146/14 137/144/14 
f 9/152/34 10/256/33 133/209/43 
f 101/153/35 9/152/34 133/209/43 
f 69/257/14 68/258/14 131/255/14 
f 143/254/14 69/257/14 131/255/14 
f 58/176/12 129/177/12 138/174/12 
f 135/175/12 58/176/12 138/174/12 
f 144/243/12 136/230/12 126/174/12 
f 130/171/12 144/243/12 126/174/12 
f 110/217/14 142/254/14 121/207/14 
f 138/145/14 110/217/14 121/207/14 
f 85/110/28 120/200/28 4/4/2 
f 3/3/2 85/110/28 4/4/2 
f 137/222/38 115/239/38 102/154/35 
f 101/153/35 137/222/38 102/154/35 
f 138/241/28 99/240/28 111/169/2 
f 110/168/2 138/241/28 111/169/2 
f 68/259/1 1/1/1 4/4/2 
f 131/199/2 68/259/1 4/4/2 
f 10/256/33 63/260/33 134/210/35 
f 133/209/43 10/256/33 134/210/35 
f 9/237/14 7/238/14 136/217/14 
f 101/216/14 9/237/14 136/217/14 
f 135/175/12 138/174/12 110/230/12 
f 133/229/12 135/175/12 110/230/12 
f 86/111/28 85/110/28 3/3/2 
f 139/236/2 86/111/28 3/3/2 
f 99/145/14 98/144/14 134/216/14 
f 111/217/14 99/145/14 134/216/14 
f 50/261/37 49/262/37 140/243/11 
f 139/242/11 50/261/37 140/243/11 
f 115/175/37 114/174/13 141/230/11 
f 102/229/11 115/175/37 141/230/11 
f 1/261/12 6/262/12 142/243/12 
f 4/242/12 1/261/12 142/243/12 
f 124/185/39 121/184/38 142/247/43 
f 143/246/43 124/185/39 142/247/43 
f 7/263/1 56/264/1 141/249/2 
f 136/248/2 7/263/1 141/249/2 
f 130/196/39 112/195/38 140/253/43 
f 144/252/43 130/196/39 140/253/43 
f 5/257/14 2/258/14 3/255/14 
f 144/254/14 5/257/14 3/255/14 
f 135/212/38 137/222/38 101/153/35 
f 133/209/43 135/212/38 101/153/35 
f 132/208/14 124/207/14 143/254/14 
f 131/255/14 132/208/14 143/254/14 
f 5/262/12 7/227/12 136/230/12 
f 144/243/12 5/262/12 136/230/12 
f 8/238/14 6/257/14 142/254/14 
f 110/217/14 8/238/14 142/254/14 
# 0 polygons - 348 triangles

