# 3ds Max Wavefront OBJ Exporter v0.97b - (c)2007 guruware
# File Created: 16.05.2018 17:22:41

mtllib Straight risen.mtl

#
# object straight
#

v  17478.3203 3139.9666 17871.7852
v  -42972.9531 3139.9666 17871.7852
v  -42972.9531 2355.1477 17871.7852
v  17478.3203 2355.1477 17871.7852
v  17478.3203 3139.9666 16695.6680
v  17478.3203 2355.1477 16695.6680
v  17478.3203 3139.9666 4321.1978
v  17478.3203 2355.1477 4321.1978
v  17478.3203 3139.9666 3145.0806
v  17478.3203 2355.1477 3145.0806
v  -42972.9531 3139.9666 3145.0806
v  -42972.9531 2355.1477 3145.0806
v  -42972.9531 3139.9666 4321.1978
v  -42972.9531 2355.1477 4321.1978
v  -42972.9531 3139.9666 16695.6680
v  -42972.9531 2355.1477 16695.6680
v  17478.3203 5956.6768 16695.6680
v  -42972.9531 5956.6768 16695.6680
v  -42972.9531 5956.6768 17871.7852
v  17478.3203 5956.6768 17871.7852
v  17478.3203 5956.6768 3145.0811
v  -42972.9531 5956.6768 3145.0806
v  -42972.9531 5956.6768 4321.1978
v  17478.3203 5956.6768 4321.1982
v  17478.3203 1491.5477 4321.1978
v  -42972.9531 1491.5477 4321.1978
v  -42972.9531 1491.5477 3145.0806
v  17478.3203 1491.5477 3145.0806
v  17478.3203 1491.5477 17871.7852
v  -42972.9531 1491.5477 17871.7852
v  -42972.9531 1491.5477 16695.6680
v  17478.3203 1491.5477 16695.6680
# 32 vertices

vn 0.0000 -0.0000 1.0000
vn -0.0000 -0.0000 1.0000
vn 0.0000 0.0000 1.0000
vn 1.0000 0.0000 -0.0000
vn 0.0000 0.0000 -1.0000
vn -1.0000 0.0000 -0.0000
vn 0.0000 1.0000 -0.0000
vn 0.0000 -1.0000 -0.0000
vn -0.0000 0.0000 1.0000
# 9 vertex normals

vt 1.1435 0.5772 0.0000
vt -10.7564 0.5772 0.0000
vt -10.7564 0.4228 0.0000
vt 1.1435 0.4228 0.0000
vt -0.7180 0.5772 0.0000
vt -0.9495 0.5772 0.0000
vt -0.9495 0.4228 0.0000
vt -0.7180 0.4228 0.0000
vt 1.7180 0.5772 0.0000
vt 1.7180 0.4228 0.0000
vt 1.9495 0.5772 0.0000
vt 1.9495 0.4228 0.0000
vt 11.7564 0.5772 0.0000
vt -0.1435 0.5772 0.0000
vt -0.1435 0.4228 0.0000
vt 11.7564 0.4228 0.0000
vt 1.1435 -0.7180 0.0000
vt -10.7564 -0.7180 0.0000
vt -10.7564 -0.9495 0.0000
vt 1.1435 -0.9495 0.0000
vt 1.1435 1.7180 0.0000
vt -10.7564 1.7180 0.0000
vt 1.1435 1.9495 0.0000
vt -10.7564 1.9495 0.0000
vt 1.1435 0.7472 0.0000
vt -10.7564 0.7472 0.0000
vt -0.7180 0.7472 0.0000
vt -0.9495 0.7472 0.0000
vt 11.7564 0.7472 0.0000
vt -0.1435 0.7472 0.0000
vt 1.9495 0.7472 0.0000
vt 1.7180 0.7472 0.0000
vt -0.1435 0.2528 0.0000
vt 11.7564 0.2528 0.0000
vt 1.7180 0.2528 0.0000
vt 1.9495 0.2528 0.0000
vt -10.7564 0.2528 0.0000
vt 1.1435 0.2528 0.0000
vt -0.9495 0.2528 0.0000
vt -0.7180 0.2528 0.0000
# 40 texture coords

o straight
g straight
usemtl Mat_1
s 1
f 1/1/1 2/2/2 3/3/3 
f 4/4/3 1/1/1 3/3/3 
f 5/5/4 1/6/4 4/7/4 
f 6/8/4 5/5/4 4/7/4 
f 7/9/4 5/5/4 6/8/4 
f 8/10/4 7/9/4 6/8/4 
f 9/11/4 7/9/4 8/10/4 
f 10/12/4 9/11/4 8/10/4 
f 11/13/5 9/14/5 10/15/5 
f 12/16/5 11/13/5 10/15/5 
f 13/5/6 11/6/6 12/7/6 
f 14/8/6 13/5/6 12/7/6 
f 15/9/6 13/5/6 14/8/6 
f 16/10/6 15/9/6 14/8/6 
f 2/11/6 15/9/6 16/10/6 
f 3/12/6 2/11/6 16/10/6 
f 17/17/7 18/18/7 19/19/7 
f 20/20/7 17/17/7 19/19/7 
f 7/21/7 13/22/7 15/18/7 
f 5/17/7 7/21/7 15/18/7 
f 21/23/7 22/24/7 23/22/7 
f 24/21/7 21/23/7 23/22/7 
f 25/17/8 26/18/8 27/19/8 
f 28/20/8 25/17/8 27/19/8 
f 6/21/8 16/22/8 14/18/8 
f 8/17/8 6/21/8 14/18/8 
f 29/23/8 30/24/8 31/22/8 
f 32/21/8 29/23/8 31/22/8 
f 15/22/8 5/21/8 1/23/8 
f 2/24/8 15/22/8 1/23/8 
f 20/25/2 19/26/9 2/2/2 
f 1/1/1 20/25/2 2/2/2 
f 17/27/4 20/28/4 1/6/4 
f 5/5/4 17/27/4 1/6/4 
f 18/29/5 17/30/5 5/14/5 
f 15/13/5 18/29/5 5/14/5 
f 19/31/6 18/32/6 15/9/6 
f 2/11/6 19/31/6 15/9/6 
f 11/19/8 9/20/8 7/17/8 
f 13/18/8 11/19/8 7/17/8 
f 24/25/2 23/26/9 13/2/2 
f 7/1/1 24/25/2 13/2/2 
f 21/31/4 24/32/4 7/9/4 
f 9/11/4 21/31/4 7/9/4 
f 22/29/5 21/30/5 9/14/5 
f 11/13/5 22/29/5 9/14/5 
f 23/27/6 22/28/6 11/6/6 
f 13/5/6 23/27/6 11/6/6 
f 14/22/7 8/21/7 10/23/7 
f 12/24/7 14/22/7 10/23/7 
f 28/33/5 27/34/5 12/16/5 
f 10/15/5 28/33/5 12/16/5 
f 25/35/4 28/36/4 10/12/4 
f 8/10/4 25/35/4 10/12/4 
f 26/37/3 25/38/3 8/4/3 
f 14/3/3 26/37/3 8/4/3 
f 27/39/6 26/40/6 14/8/6 
f 12/7/6 27/39/6 14/8/6 
f 3/19/7 4/20/7 6/17/7 
f 16/18/7 3/19/7 6/17/7 
f 32/33/5 31/34/5 16/16/5 
f 6/15/5 32/33/5 16/16/5 
f 29/39/4 32/40/4 6/8/4 
f 4/7/4 29/39/4 6/8/4 
f 30/37/3 29/38/3 4/4/3 
f 3/3/3 30/37/3 4/4/3 
f 31/35/6 30/36/6 3/12/6 
f 16/10/6 31/35/6 3/12/6 
# 0 polygons - 68 triangles

